{
	"asset":{
		"generator":"Khronos glTF Blender I/O v4.0.43",
		"version":"2.0"
	},
	"scene":0,
	"scenes":[
		{
			"name":"Scene",
			"nodes":[
				0,
				1
			]
		}
	],
	"nodes":[
		{
			"mesh":0,
			"name":"Cube",
			"translation":[
				-0.026092417538166046,
				0.2285705953836441,
				-0.22266192734241486
			]
		},
		{
			"mesh":1,
			"name":"Cube.001",
			"rotation":[
				0.33019793033599854,
				0.1797633171081543,
				0.14584369957447052,
				0.9150869250297546
			],
			"translation":[
				-1.492999792098999,
				0.38229379057884216,
				2.909127950668335
			]
		}
	],
	"materials":[
		{
			"doubleSided":true,
			"name":"Material",
			"pbrMetallicRoughness":{
				"baseColorFactor":[
					0.12945599853992462,
					0.8004740476608276,
					0.15641295909881592,
					1
				],
				"metallicFactor":0.6551724076271057,
				"roughnessFactor":0.5
			}
		},
		{
			"doubleSided":true,
			"name":"Material.002",
			"pbrMetallicRoughness":{
				"baseColorTexture":{
					"index":0
				},
				"metallicFactor":0,
				"roughnessFactor":0.5
			}
		}
	],
	"meshes":[
		{
			"name":"Cube",
			"primitives":[
				{
					"attributes":{
						"POSITION":0,
						"NORMAL":1,
						"TEXCOORD_0":2
					},
					"indices":3,
					"material":0
				}
			]
		},
		{
			"name":"Cube.001",
			"primitives":[
				{
					"attributes":{
						"POSITION":4,
						"NORMAL":5,
						"TEXCOORD_0":6
					},
					"indices":7,
					"material":1
				}
			]
		}
	],
	"textures":[
		{
			"sampler":0,
			"source":0
		}
	],
	"images":[
		{
			"mimeType":"image/png",
			"name":"awesomeface",
			"uri":"../textures/awesomeface.png"
		}
	],
	"accessors":[
		{
			"bufferView":0,
			"componentType":5126,
			"count":24,
			"max":[
				1,
				1,
				1
			],
			"min":[
				-1,
				-1,
				-1
			],
			"type":"VEC3"
		},
		{
			"bufferView":1,
			"componentType":5126,
			"count":24,
			"type":"VEC3"
		},
		{
			"bufferView":2,
			"componentType":5126,
			"count":24,
			"type":"VEC2"
		},
		{
			"bufferView":3,
			"componentType":5123,
			"count":36,
			"type":"SCALAR"
		},
		{
			"bufferView":4,
			"componentType":5126,
			"count":2028,
			"max":[
				3.986541748046875,
				3.40397572517395,
				3.1982932090759277
			],
			"min":[
				-2.9845142364501953,
				-1,
				-1.0000001192092896
			],
			"type":"VEC3"
		},
		{
			"bufferView":5,
			"componentType":5126,
			"count":2028,
			"type":"VEC3"
		},
		{
			"bufferView":6,
			"componentType":5126,
			"count":2028,
			"type":"VEC2"
		},
		{
			"bufferView":7,
			"componentType":5123,
			"count":2964,
			"type":"SCALAR"
		}
	],
	"bufferViews":[
		{
			"buffer":0,
			"byteLength":288,
			"byteOffset":0,
			"target":34962
		},
		{
			"buffer":0,
			"byteLength":288,
			"byteOffset":288,
			"target":34962
		},
		{
			"buffer":0,
			"byteLength":192,
			"byteOffset":576,
			"target":34962
		},
		{
			"buffer":0,
			"byteLength":72,
			"byteOffset":768,
			"target":34963
		},
		{
			"buffer":0,
			"byteLength":24336,
			"byteOffset":840,
			"target":34962
		},
		{
			"buffer":0,
			"byteLength":24336,
			"byteOffset":25176,
			"target":34962
		},
		{
			"buffer":0,
			"byteLength":16224,
			"byteOffset":49512,
			"target":34962
		},
		{
			"buffer":0,
			"byteLength":5928,
			"byteOffset":65736,
			"target":34963
		}
	],
	"samplers":[
		{
			"magFilter":9729,
			"minFilter":9987
		}
	],
	"buffers":[
		{
			"byteLength":71664,
			"uri":"test.bin"
		}
	]
}
