{
    "asset" : {
        "generator" : "Khronos glTF Blender I/O v1.7.33",
        "version" : "2.0"
    },
    "scene" : 0,
    "scenes" : [
        {
            "name" : "Scene",
            "nodes" : [
                0,
                1
            ]
        }
    ],
    "nodes" : [
        {
            "mesh" : 0,
            "name" : "Icosphere",
            "scale" : [
                0.8626096248626709,
                0.8626096248626709,
                0.8626096248626709
            ],
            "translation" : [
                -15.243147850036621,
                83,
                -278
            ]
        },
        {
            "mesh" : 1,
            "name" : "Plane",
            "rotation" : [
                0.7071068286895752,
                0,
                0,
                0.7071068286895752
            ],
            "scale" : [
                10,
                10,
                10
            ]
        }
    ],
    "materials" : [
        {
            "doubleSided" : true,
            "name" : "Material",
            "pbrMetallicRoughness" : {
                "baseColorTexture" : {
                    "index" : 0
                },
                "metallicFactor" : 0,
                "roughnessFactor" : 0.5
            }
        },
        {
            "doubleSided" : true,
            "name" : "Walls",
            "pbrMetallicRoughness" : {
                "baseColorTexture" : {
                    "index" : 1
                },
                "metallicFactor" : 0,
                "roughnessFactor" : 0.5
            }
        },
        {
            "doubleSided" : true,
            "name" : "Material.001",
            "pbrMetallicRoughness" : {
                "baseColorFactor" : [
                    0.800000011920929,
                    0.800000011920929,
                    0.800000011920929,
                    1
                ],
                "metallicFactor" : 0,
                "roughnessFactor" : 0.5
            }
        }
    ],
    "meshes" : [
        {
            "name" : "Icosphere.001",
            "primitives" : [
                {
                    "attributes" : {
                        "POSITION" : 0,
                        "NORMAL" : 1,
                        "TEXCOORD_0" : 2
                    },
                    "indices" : 3,
                    "material" : 0
                }
            ]
        },
        {
            "name" : "Plane",
            "primitives" : [
                {
                    "attributes" : {
                        "POSITION" : 4,
                        "NORMAL" : 5,
                        "TEXCOORD_0" : 6
                    },
                    "indices" : 7,
                    "material" : 1
                },
                {
                    "attributes" : {
                        "POSITION" : 8,
                        "NORMAL" : 9,
                        "TEXCOORD_0" : 10
                    },
                    "indices" : 11,
                    "material" : 2
                }
            ]
        }
    ],
    "textures" : [
        {
            "sampler" : 0,
            "source" : 0
        },
        {
            "sampler" : 1,
            "source" : 1
        }
    ],
    "images" : [
        {
            "bufferView" : 4,
            "mimeType" : "image/jpeg",
            "name" : "container"
        },
        {
            "bufferView" : 9,
            "mimeType" : "image/jpeg",
            "name" : "Metal_seamless2_ch16"
        }
    ],
    "accessors" : [
        {
            "bufferView" : 0,
            "componentType" : 5126,
            "count" : 3779,
            "max" : [
                339.2408142089844,
                209.06414794921875,
                -281.9666748046875
            ],
            "min" : [
                -298.0904235839844,
                -119.34637451171875,
                -919.3743896484375
            ],
            "type" : "VEC3"
        },
        {
            "bufferView" : 1,
            "componentType" : 5126,
            "count" : 3779,
            "type" : "VEC3"
        },
        {
            "bufferView" : 2,
            "componentType" : 5126,
            "count" : 3779,
            "type" : "VEC2"
        },
        {
            "bufferView" : 3,
            "componentType" : 5123,
            "count" : 5781,
            "type" : "SCALAR"
        },
        {
            "bufferView" : 5,
            "componentType" : 5126,
            "count" : 118,
            "max" : [
                10,
                0,
                1.0000011920928955
            ],
            "min" : [
                -45,
                -53.28428268432617,
                -3.463698148727417
            ],
            "type" : "VEC3"
        },
        {
            "bufferView" : 6,
            "componentType" : 5126,
            "count" : 118,
            "type" : "VEC3"
        },
        {
            "bufferView" : 7,
            "componentType" : 5126,
            "count" : 118,
            "type" : "VEC2"
        },
        {
            "bufferView" : 8,
            "componentType" : 5123,
            "count" : 192,
            "type" : "SCALAR"
        },
        {
            "bufferView" : 10,
            "componentType" : 5126,
            "count" : 34,
            "max" : [
                10,
                0,
                1.0000011920928955
            ],
            "min" : [
                -45,
                -53.28428268432617,
                -3.463698148727417
            ],
            "type" : "VEC3"
        },
        {
            "bufferView" : 11,
            "componentType" : 5126,
            "count" : 34,
            "type" : "VEC3"
        },
        {
            "bufferView" : 12,
            "componentType" : 5126,
            "count" : 34,
            "type" : "VEC2"
        },
        {
            "bufferView" : 13,
            "componentType" : 5123,
            "count" : 72,
            "type" : "SCALAR"
        }
    ],
    "bufferViews" : [
        {
            "buffer" : 0,
            "byteLength" : 45348,
            "byteOffset" : 0
        },
        {
            "buffer" : 0,
            "byteLength" : 45348,
            "byteOffset" : 45348
        },
        {
            "buffer" : 0,
            "byteLength" : 30232,
            "byteOffset" : 90696
        },
        {
            "buffer" : 0,
            "byteLength" : 11562,
            "byteOffset" : 120928
        },
        {
            "buffer" : 0,
            "byteLength" : 184939,
            "byteOffset" : 132492
        },
        {
            "buffer" : 0,
            "byteLength" : 1416,
            "byteOffset" : 317432
        },
        {
            "buffer" : 0,
            "byteLength" : 1416,
            "byteOffset" : 318848
        },
        {
            "buffer" : 0,
            "byteLength" : 944,
            "byteOffset" : 320264
        },
        {
            "buffer" : 0,
            "byteLength" : 384,
            "byteOffset" : 321208
        },
        {
            "buffer" : 0,
            "byteLength" : 39886,
            "byteOffset" : 321592
        },
        {
            "buffer" : 0,
            "byteLength" : 408,
            "byteOffset" : 361480
        },
        {
            "buffer" : 0,
            "byteLength" : 408,
            "byteOffset" : 361888
        },
        {
            "buffer" : 0,
            "byteLength" : 272,
            "byteOffset" : 362296
        },
        {
            "buffer" : 0,
            "byteLength" : 144,
            "byteOffset" : 362568
        }
    ],
    "samplers" : [
        {
            "magFilter" : 9729,
            "minFilter" : 9987
        },
        {
            "magFilter" : 9728,
            "minFilter" : 9984
        }
    ],
    "buffers" : [
        {
            "byteLength" : 362712,
            "uri" : "data:application/octet-stream;base64,"
        }
    ]
}
